<?xml version="1.0" encoding="iso-8859-1"?>
<!-- Generator: Adobe Illustrator 19.0.0, SVG Export Plug-In . SVG Version: 6.00 Build 0)  -->
<svg version="1.1" id="Layer_1" xmlns="http://www.w3.org/2000/svg" xmlns:xlink="http://www.w3.org/1999/xlink" x="0px" y="0px"
	 viewBox="0 0 512 512" style="enable-background:new 0 0 512 512;" xml:space="preserve">
<circle style="fill:#FFD15D;" cx="256" cy="256" r="256"/>
<path style="fill:#F9B54C;" d="M510.216,225.771L369.778,85.333c0,0-124.683,189.119-124.695,187.906l-102.86,153.428l83.547,83.547
	c75.186,8.89,153.559-15.505,211.249-73.195S519.104,300.956,510.216,225.771z"/>
<rect x="142.222" y="85.333" style="fill:#B97850;" width="227.556" height="341.333"/>
<rect x="256" y="85.333" style="fill:#935635;" width="113.778" height="341.333"/>
<rect x="156.013" y="98.263" style="fill:#FFFFFF;" width="199.973" height="315.475"/>
<rect x="256" y="98.263" style="fill:#E6F3FF;" width="99.987" height="315.475"/>
<rect x="199.111" y="85.333" style="fill:#734B46;" width="113.778" height="28.444"/>
<rect x="256" y="85.333" style="fill:#57442F;" width="56.889" height="28.444"/>
<g>
	<rect x="170.667" y="170.667" style="fill:#84DBFF;" width="28.444" height="28.444"/>
	<rect x="170.667" y="227.556" style="fill:#84DBFF;" width="28.444" height="28.444"/>
	<rect x="170.667" y="284.444" style="fill:#84DBFF;" width="28.444" height="28.444"/>
	<rect x="170.667" y="341.333" style="fill:#84DBFF;" width="28.444" height="28.444"/>
</g>
<g>
	<rect x="227.556" y="193.939" style="fill:#CFDBE6;" width="113.778" height="5.172"/>
	<rect x="227.556" y="250.828" style="fill:#CFDBE6;" width="113.778" height="5.172"/>
	<rect x="227.556" y="307.717" style="fill:#CFDBE6;" width="113.778" height="5.172"/>
	<rect x="227.556" y="364.606" style="fill:#CFDBE6;" width="113.778" height="5.172"/>
	<rect x="227.556" y="181.872" style="fill:#CFDBE6;" width="113.778" height="5.172"/>
	<rect x="227.556" y="238.761" style="fill:#CFDBE6;" width="113.778" height="5.172"/>
	<rect x="227.556" y="295.65" style="fill:#CFDBE6;" width="113.778" height="5.172"/>
	<rect x="227.556" y="352.539" style="fill:#CFDBE6;" width="113.778" height="5.172"/>
</g>
<g>
</g>
<g>
</g>
<g>
</g>
<g>
</g>
<g>
</g>
<g>
</g>
<g>
</g>
<g>
</g>
<g>
</g>
<g>
</g>
<g>
</g>
<g>
</g>
<g>
</g>
<g>
</g>
<g>
</g>
</svg>
